<svg xmlns="http://www.w3.org/2000/svg" xmlns:xlink="http://www.w3.org/1999/xlink">
  <symbol id="icon-tools-segment" viewBox="0 0 16 16">
    <title>
      Segment
    </title>
 <g id="layer1">
  <g id="g4442" fill-rule="evenodd">
   <path id="path4454" d="m7.9704 9.7305 6.6641-4.0166v5.9471l-6.6641 2.7992z" points="14.634513,5.7139433 14.634513,11.661023 7.9703765,14.460182 7.9703765,9.7304947 " fill="#e9e9ff"/>
   <path id="path4444" d="m2.2074 7.1382v5.5154l5.763 1.8066v-4.7297z" points="2.2074257,12.653626 7.9703765,14.460182 7.9703765,9.7304947 2.2074257,7.1382423 " fill="#353564"/>
   <path id="path4446" d="m2.2074 7.1382 6.3113-5.7058 6.1163 4.2815-6.6646 4.0166z" points="8.5187067,1.4324201 14.634513,5.7139433 7.9703765,9.7304947 2.2074257,7.1382423 " fill="#4d4d9f"/>
   <path id="path4452" d="m2.2074 12.654 6.3113-3.9768 6.1163 2.9838-6.6646 2.799z" points="8.5187067,8.6772035 14.634513,11.661023 7.9703765,14.460182 2.2074257,12.653626 " fill="#afafde"/>
   <path id="path4450" d="m8.5187 1.4324v7.2448l6.1158 2.9838v-5.9471z" points="8.5187067,8.6772035 14.634513,11.661023 14.634513,5.7139433 8.5187067,1.4324201 " fill="#d7d7ff"/>
   <path id="path4448" d="m2.2074 7.1382 6.3113-5.7058v7.2448l-6.3113 3.9764z" points="8.5187067,1.4324201 8.5187067,8.6772035 2.2074257,12.653626 2.2074257,7.1382423 " fill="#8686bf"/>
  </g>
 </g>
  </symbol>  
</svg>
